REM GoldWave
FILE "Зазнобин В.М. Беседа с баптистом в Ивановке, Азербайджан (8 июня 2011 г.).m4a" BINARY
  TRACK 01 AUDIO
    TITLE "00:00:00.00000"
    PERFORMER "Владимир Михайлович Зазнобин. Видеоархив"
    INDEX 01 00:00:00
  TRACK 02 AUDIO
    TITLE "00:00:18.03719"
    PERFORMER "Владимир Михайлович Зазнобин. Видеоархив"
    INDEX 01 00:18:03
  TRACK 03 AUDIO
    TITLE "00:00:32.02249"
    PERFORMER "Владимир Михайлович Зазнобин. Видеоархив"
    INDEX 01 00:32:02
  TRACK 04 AUDIO
    TITLE "00:00:48.55039"
    PERFORMER "Владимир Михайлович Зазнобин. Видеоархив"
    INDEX 01 00:48:41
  TRACK 05 AUDIO
    TITLE "00:01:02.23383"
    PERFORMER "Владимир Михайлович Зазнобин. Видеоархив"
    INDEX 01 01:02:18
  TRACK 06 AUDIO
    TITLE "00:01:15.54576"
    PERFORMER "Владимир Михайлович Зазнобин. Видеоархив"
    INDEX 01 01:15:41
  TRACK 07 AUDIO
    TITLE "00:01:28.46295"
    PERFORMER "Владимир Михайлович Зазнобин. Видеоархив"
    INDEX 01 01:28:35
  TRACK 08 AUDIO
    TITLE "00:01:42.07673"
    PERFORMER "Владимир Михайлович Зазнобин. Видеоархив"
    INDEX 01 01:42:06
  TRACK 09 AUDIO
    TITLE "00:01:56.66576"
    PERFORMER "Владимир Михайлович Зазнобин. Видеоархив"
    INDEX 01 01:56:50
  TRACK 10 AUDIO
    TITLE "00:02:09.80354"
    PERFORMER "Владимир Михайлович Зазнобин. Видеоархив"
    INDEX 01 02:09:60
  TRACK 11 AUDIO
    TITLE "00:02:23.08063"
    PERFORMER "Владимир Михайлович Зазнобин. Видеоархив"
    INDEX 01 02:23:06
  TRACK 12 AUDIO
    TITLE "00:02:38.56363"
    PERFORMER "Владимир Михайлович Зазнобин. Видеоархив"
    INDEX 01 02:38:42
  TRACK 13 AUDIO
    TITLE "00:02:54.32526"
    PERFORMER "Владимир Михайлович Зазнобин. Видеоархив"
    INDEX 01 02:54:24
  TRACK 14 AUDIO
    TITLE "00:03:08.49633"
    PERFORMER "Владимир Михайлович Зазнобин. Видеоархив"
    INDEX 01 03:08:37
  TRACK 15 AUDIO
    TITLE "00:03:23.36399"
    PERFORMER "Владимир Михайлович Зазнобин. Видеоархив"
    INDEX 01 03:23:27
  TRACK 16 AUDIO
    TITLE "00:03:38.27810"
    PERFORMER "Владимир Михайлович Зазнобин. Видеоархив"
    INDEX 01 03:38:21
  TRACK 17 AUDIO
    TITLE "00:03:55.14268"
    PERFORMER "Владимир Михайлович Зазнобин. Видеоархив"
    INDEX 01 03:55:11
  TRACK 18 AUDIO
    TITLE "00:04:10.39347"
    PERFORMER "Владимир Михайлович Зазнобин. Видеоархив"
    INDEX 01 04:10:30
  TRACK 19 AUDIO
    TITLE "00:04:24.15819"
    PERFORMER "Владимир Михайлович Зазнобин. Видеоархив"
    INDEX 01 04:24:12
  TRACK 20 AUDIO
    TITLE "00:04:37.34240"
    PERFORMER "Владимир Михайлович Зазнобин. Видеоархив"
    INDEX 01 04:37:26
  TRACK 21 AUDIO
    TITLE "00:04:52.39583"
    PERFORMER "Владимир Михайлович Зазнобин. Видеоархив"
    INDEX 01 04:52:30
  TRACK 22 AUDIO
    TITLE "00:05:05.84707"
    PERFORMER "Владимир Михайлович Зазнобин. Видеоархив"
    INDEX 01 05:05:64
  TRACK 23 AUDIO
    TITLE "00:05:19.48408"
    PERFORMER "Владимир Михайлович Зазнобин. Видеоархив"
    INDEX 01 05:19:36
  TRACK 24 AUDIO
    TITLE "00:05:32.91211"
    PERFORMER "Владимир Михайлович Зазнобин. Видеоархив"
    INDEX 01 05:32:68
  TRACK 25 AUDIO
    TITLE "00:05:45.64354"
    PERFORMER "Владимир Михайлович Зазнобин. Видеоархив"
    INDEX 01 05:45:48
  TRACK 26 AUDIO
    TITLE "00:06:01.71864"
    PERFORMER "Владимир Михайлович Зазнобин. Видеоархив"
    INDEX 01 06:01:54
  TRACK 27 AUDIO
    TITLE "00:06:15.69234"
    PERFORMER "Владимир Михайлович Зазнобин. Видеоархив"
    INDEX 01 06:15:52
  TRACK 28 AUDIO
    TITLE "00:06:28.50503"
    PERFORMER "Владимир Михайлович Зазнобин. Видеоархив"
    INDEX 01 06:28:38
  TRACK 29 AUDIO
    TITLE "00:06:41.60798"
    PERFORMER "Владимир Михайлович Зазнобин. Видеоархив"
    INDEX 01 06:41:46
  TRACK 30 AUDIO
    TITLE "00:06:56.69624"
    PERFORMER "Владимир Михайлович Зазнобин. Видеоархив"
    INDEX 01 06:56:52
  TRACK 31 AUDIO
    TITLE "00:07:10.48417"
    PERFORMER "Владимир Михайлович Зазнобин. Видеоархив"
    INDEX 01 07:10:36
  TRACK 32 AUDIO
    TITLE "00:07:24.14440"
    PERFORMER "Владимир Михайлович Зазнобин. Видеоархив"
    INDEX 01 07:24:11
  TRACK 33 AUDIO
    TITLE "00:07:37.08481"
    PERFORMER "Владимир Михайлович Зазнобин. Видеоархив"
    INDEX 01 07:37:06
  TRACK 34 AUDIO
    TITLE "00:07:49.70014"
    PERFORMER "Владимир Михайлович Зазнобин. Видеоархив"
    INDEX 01 07:49:53
  TRACK 35 AUDIO
    TITLE "00:08:03.07011"
    PERFORMER "Владимир Михайлович Зазнобин. Видеоархив"
    INDEX 01 08:03:05
  TRACK 36 AUDIO
    TITLE "00:08:21.23501"
    PERFORMER "Владимир Михайлович Зазнобин. Видеоархив"
    INDEX 01 08:21:18
  TRACK 37 AUDIO
    TITLE "00:08:35.55701"
    PERFORMER "Владимир Михайлович Зазнобин. Видеоархив"
    INDEX 01 08:35:42
  TRACK 38 AUDIO
    TITLE "00:08:48.74122"
    PERFORMER "Владимир Михайлович Зазнобин. Видеоархив"
    INDEX 01 08:48:56
  TRACK 39 AUDIO
    TITLE "00:09:01.86739"
    PERFORMER "Владимир Михайлович Зазнобин. Видеоархив"
    INDEX 01 09:01:65
  TRACK 40 AUDIO
    TITLE "00:09:15.67855"
    PERFORMER "Владимир Михайлович Зазнобин. Видеоархив"
    INDEX 01 09:15:51
  TRACK 41 AUDIO
    TITLE "00:09:31.12671"
    PERFORMER "Владимир Михайлович Зазнобин. Видеоархив"
    INDEX 01 09:31:10
  TRACK 42 AUDIO
    TITLE "00:09:44.47347"
    PERFORMER "Владимир Михайлович Зазнобин. Видеоархив"
    INDEX 01 09:44:36
  TRACK 43 AUDIO
    TITLE "00:09:57.33261"
    PERFORMER "Владимир Михайлович Зазнобин. Видеоархив"
    INDEX 01 09:57:25
  TRACK 44 AUDIO
    TITLE "00:10:11.07410"
    PERFORMER "Владимир Михайлович Зазнобин. Видеоархив"
    INDEX 01 10:11:06
  TRACK 45 AUDIO
    TITLE "00:10:24.66467"
    PERFORMER "Владимир Михайлович Зазнобин. Видеоархив"
    INDEX 01 10:24:50
  TRACK 46 AUDIO
    TITLE "00:10:38.83574"
    PERFORMER "Владимир Михайлович Зазнобин. Видеоархив"
    INDEX 01 10:38:63
  TRACK 47 AUDIO
    TITLE "00:10:53.49442"
    PERFORMER "Владимир Михайлович Зазнобин. Видеоархив"
    INDEX 01 10:53:37
  TRACK 48 AUDIO
    TITLE "00:11:06.77152"
    PERFORMER "Владимир Михайлович Зазнобин. Видеоархив"
    INDEX 01 11:06:58
  TRACK 49 AUDIO
    TITLE "00:11:19.90930"
    PERFORMER "Владимир Михайлович Зазнобин. Видеоархив"
    INDEX 01 11:19:68
  TRACK 50 AUDIO
    TITLE "00:11:33.80172"
    PERFORMER "Владимир Михайлович Зазнобин. Видеоархив"
    INDEX 01 11:33:60
  TRACK 51 AUDIO
    TITLE "00:11:47.38068"
    PERFORMER "Владимир Михайлович Зазнобин. Видеоархив"
    INDEX 01 11:47:29
  TRACK 52 AUDIO
    TITLE "00:12:00.54168"
    PERFORMER "Владимир Михайлович Зазнобин. Видеоархив"
    INDEX 01 12:00:41
  TRACK 53 AUDIO
    TITLE "00:12:14.03937"
    PERFORMER "Владимир Михайлович Зазнобин. Видеоархив"
    INDEX 01 12:14:03
  TRACK 54 AUDIO
    TITLE "00:12:30.42794"
    PERFORMER "Владимир Михайлович Зазнобин. Видеоархив"
    INDEX 01 12:30:32
  TRACK 55 AUDIO
    TITLE "00:12:44.47129"
    PERFORMER "Владимир Михайлович Зазнобин. Видеоархив"
    INDEX 01 12:44:35
  TRACK 56 AUDIO
    TITLE "00:12:57.02857"
    PERFORMER "Владимир Михайлович Зазнобин. Видеоархив"
    INDEX 01 12:57:02
  TRACK 57 AUDIO
    TITLE "00:13:10.87456"
    PERFORMER "Владимир Михайлович Зазнобин. Видеоархив"
    INDEX 01 13:10:66
  TRACK 58 AUDIO
    TITLE "00:13:24.44190"
    PERFORMER "Владимир Михайлович Зазнобин. Видеоархив"
    INDEX 01 13:24:33
  TRACK 59 AUDIO
    TITLE "00:13:38.21823"
    PERFORMER "Владимир Михайлович Зазнобин. Видеоархив"
    INDEX 01 13:38:16
  TRACK 60 AUDIO
    TITLE "00:13:52.96980"
    PERFORMER "Владимир Михайлович Зазнобин. Видеоархив"
    INDEX 01 13:52:73
  TRACK 61 AUDIO
    TITLE "00:14:08.44118"
    PERFORMER "Владимир Михайлович Зазнобин. Видеоархив"
    INDEX 01 14:08:33
  TRACK 62 AUDIO
    TITLE "00:14:22.78639"
    PERFORMER "Владимир Михайлович Зазнобин. Видеоархив"
    INDEX 01 14:22:59
  TRACK 63 AUDIO
    TITLE "00:14:35.88934"
    PERFORMER "Владимир Михайлович Зазнобин. Видеоархив"
    INDEX 01 14:35:67
  TRACK 64 AUDIO
    TITLE "00:14:48.64399"
    PERFORMER "Владимир Михайлович Зазнобин. Видеоархив"
    INDEX 01 14:48:48
  TRACK 65 AUDIO
    TITLE "00:15:01.77016"
    PERFORMER "Владимир Михайлович Зазнобин. Видеоархив"
    INDEX 01 15:01:58
  TRACK 66 AUDIO
    TITLE "00:15:17.46213"
    PERFORMER "Владимир Михайлович Зазнобин. Видеоархив"
    INDEX 01 15:17:35
  TRACK 67 AUDIO
    TITLE "00:15:31.73769"
    PERFORMER "Владимир Михайлович Зазнобин. Видеоархив"
    INDEX 01 15:31:55
  TRACK 68 AUDIO
    TITLE "00:15:48.96218"
    PERFORMER "Владимир Михайлович Зазнобин. Видеоархив"
    INDEX 01 15:48:72
  TRACK 69 AUDIO
    TITLE "00:16:02.91265"
    PERFORMER "Владимир Михайлович Зазнобин. Видеоархив"
    INDEX 01 16:02:68
  TRACK 70 AUDIO
    TITLE "00:16:15.35383"
    PERFORMER "Владимир Михайлович Зазнобин. Видеоархив"
    INDEX 01 16:15:27
  TRACK 71 AUDIO
    TITLE "00:16:28.00399"
    PERFORMER "Владимир Михайлович Зазнобин. Видеоархив"
    INDEX 01 16:28:00
  TRACK 72 AUDIO
    TITLE "00:16:40.53805"
    PERFORMER "Владимир Михайлович Зазнобин. Видеоархив"
    INDEX 01 16:40:40
  TRACK 73 AUDIO
    TITLE "00:16:57.61161"
    PERFORMER "Владимир Михайлович Зазнобин. Видеоархив"
    INDEX 01 16:57:46
  TRACK 74 AUDIO
    TITLE "00:17:11.71302"
    PERFORMER "Владимир Михайлович Зазнобин. Видеоархив"
    INDEX 01 17:11:53
  TRACK 75 AUDIO
    TITLE "00:17:25.64027"
    PERFORMER "Владимир Михайлович Зазнобин. Видеоархив"
    INDEX 01 17:25:48
  TRACK 76 AUDIO
    TITLE "00:17:39.26567"
    PERFORMER "Владимир Михайлович Зазнобин. Видеоархив"
    INDEX 01 17:39:20
  TRACK 77 AUDIO
    TITLE "00:17:56.98939"
    PERFORMER "Владимир Михайлович Зазнобин. Видеоархив"
    INDEX 01 17:56:74
  TRACK 78 AUDIO
    TITLE "00:18:11.97315"
    PERFORMER "Владимир Михайлович Зазнобин. Видеоархив"
    INDEX 01 18:11:73
  TRACK 79 AUDIO
    TITLE "00:18:25.61016"
    PERFORMER "Владимир Михайлович Зазнобин. Видеоархив"
    INDEX 01 18:25:46
  TRACK 80 AUDIO
    TITLE "00:18:39.92054"
    PERFORMER "Владимир Михайлович Зазнобин. Видеоархив"
    INDEX 01 18:39:69
  TRACK 81 AUDIO
    TITLE "00:18:53.22086"
    PERFORMER "Владимир Михайлович Зазнобин. Видеоархив"
    INDEX 01 18:53:17
  TRACK 82 AUDIO
    TITLE "00:19:07.42676"
    PERFORMER "Владимир Михайлович Зазнобин. Видеоархив"
    INDEX 01 19:07:32
  TRACK 83 AUDIO
    TITLE "00:19:21.16825"
    PERFORMER "Владимир Михайлович Зазнобин. Видеоархив"
    INDEX 01 19:21:13
  TRACK 84 AUDIO
    TITLE "00:19:34.17832"
    PERFORMER "Владимир Михайлович Зазнобин. Видеоархив"
    INDEX 01 19:34:13
  TRACK 85 AUDIO
    TITLE "00:19:47.13034"
    PERFORMER "Владимир Михайлович Зазнобин. Видеоархив"
    INDEX 01 19:47:10
  TRACK 86 AUDIO
    TITLE "00:20:00.07075"
    PERFORMER "Владимир Михайлович Зазнобин. Видеоархив"
    INDEX 01 20:00:05
  TRACK 87 AUDIO
    TITLE "00:20:13.71937"
    PERFORMER "Владимир Михайлович Зазнобин. Видеоархив"
    INDEX 01 20:13:54
  TRACK 88 AUDIO
    TITLE "00:20:28.21551"
    PERFORMER "Владимир Михайлович Зазнобин. Видеоархив"
    INDEX 01 20:28:16
  TRACK 89 AUDIO
    TITLE "00:20:43.07156"
    PERFORMER "Владимир Михайлович Зазнобин. Видеоархив"
    INDEX 01 20:43:05
  TRACK 90 AUDIO
    TITLE "00:20:55.75655"
    PERFORMER "Владимир Михайлович Зазнобин. Видеоархив"
    INDEX 01 20:55:57
  TRACK 91 AUDIO
    TITLE "00:21:08.95238"
    PERFORMER "Владимир Михайлович Зазнобин. Видеоархив"
    INDEX 01 21:08:71
  TRACK 92 AUDIO
    TITLE "00:21:22.86803"
    PERFORMER "Владимир Михайлович Зазнобин. Видеоархив"
    INDEX 01 21:22:65
  TRACK 93 AUDIO
    TITLE "00:21:36.78367"
    PERFORMER "Владимир Михайлович Зазнобин. Видеоархив"
    INDEX 01 21:36:59
  TRACK 94 AUDIO
    TITLE "00:21:49.96789"
    PERFORMER "Владимир Михайлович Зазнобин. Видеоархив"
    INDEX 01 21:49:73
  TRACK 95 AUDIO
    TITLE "00:22:04.58014"
    PERFORMER "Владимир Михайлович Зазнобин. Видеоархив"
    INDEX 01 22:04:44
  TRACK 96 AUDIO
    TITLE "00:22:17.72952"
    PERFORMER "Владимир Михайлович Зазнобин. Видеоархив"
    INDEX 01 22:17:55
  TRACK 97 AUDIO
    TITLE "00:22:32.72490"
    PERFORMER "Владимир Михайлович Зазнобин. Видеоархив"
    INDEX 01 22:32:54
  TRACK 98 AUDIO
    TITLE "00:22:48.28916"
    PERFORMER "Владимир Михайлович Зазнобин. Видеоархив"
    INDEX 01 22:48:22
  TRACK 99 AUDIO
    TITLE "00:23:01.49660"
    PERFORMER "Владимир Михайлович Зазнобин. Видеоархив"
    INDEX 01 23:01:37
  TRACK 100 AUDIO
    TITLE "00:23:13.91456"
    PERFORMER "Владимир Михайлович Зазнобин. Видеоархив"
    INDEX 01 23:13:69
  TRACK 101 AUDIO
    TITLE "00:23:26.95946"
    PERFORMER "Владимир Михайлович Зазнобин. Видеоархив"
    INDEX 01 23:26:72
  TRACK 102 AUDIO
    TITLE "00:23:39.65605"
    PERFORMER "Владимир Михайлович Зазнобин. Видеоархив"
    INDEX 01 23:39:49
  TRACK 103 AUDIO
    TITLE "00:23:53.62975"
    PERFORMER "Владимир Михайлович Зазнобин. Видеоархив"
    INDEX 01 23:53:47
  TRACK 104 AUDIO
    TITLE "00:24:08.57868"
    PERFORMER "Владимир Михайлович Зазнобин. Видеоархив"
    INDEX 01 24:08:43
  TRACK 105 AUDIO
    TITLE "00:24:23.89914"
    PERFORMER "Владимир Михайлович Зазнобин. Видеоархив"
    INDEX 01 24:23:67
  TRACK 106 AUDIO
    TITLE "00:24:38.98739"
    PERFORMER "Владимир Михайлович Зазнобин. Видеоархив"
    INDEX 01 24:38:74
  TRACK 107 AUDIO
    TITLE "00:24:53.12363"
    PERFORMER "Владимир Михайлович Зазнобин. Видеоархив"
    INDEX 01 24:53:09
  TRACK 108 AUDIO
    TITLE "00:25:06.71420"
    PERFORMER "Владимир Михайлович Зазнобин. Видеоархив"
    INDEX 01 25:06:54
  TRACK 109 AUDIO
    TITLE "00:25:21.54703"
    PERFORMER "Владимир Михайлович Зазнобин. Видеоархив"
    INDEX 01 25:21:41
  TRACK 110 AUDIO
    TITLE "00:25:35.54395"
    PERFORMER "Владимир Михайлович Зазнобин. Видеоархив"
    INDEX 01 25:35:41
  TRACK 111 AUDIO
    TITLE "00:25:49.99365"
    PERFORMER "Владимир Михайлович Зазнобин. Видеоархив"
    INDEX 01 25:50:00
  TRACK 112 AUDIO
    TITLE "00:26:03.24753"
    PERFORMER "Владимир Михайлович Зазнобин. Видеоархив"
    INDEX 01 26:03:19
  TRACK 113 AUDIO
    TITLE "00:26:17.39537"
    PERFORMER "Владимир Михайлович Зазнобин. Видеоархив"
    INDEX 01 26:17:30
  TRACK 114 AUDIO
    TITLE "00:26:31.86830"
    PERFORMER "Владимир Михайлович Зазнобин. Видеоархив"
    INDEX 01 26:31:65
  TRACK 115 AUDIO
    TITLE "00:26:46.53859"
    PERFORMER "Владимир Михайлович Зазнобин. Видеоархив"
    INDEX 01 26:46:40
  TRACK 116 AUDIO
    TITLE "00:27:00.74449"
    PERFORMER "Владимир Михайлович Зазнобин. Видеоархив"
    INDEX 01 27:00:56
  TRACK 117 AUDIO
    TITLE "00:27:13.95193"
    PERFORMER "Владимир Михайлович Зазнобин. Видеоархив"
    INDEX 01 27:13:71
  TRACK 118 AUDIO
    TITLE "00:27:29.37687"
    PERFORMER "Владимир Михайлович Зазнобин. Видеоархив"
    INDEX 01 27:29:28
  TRACK 119 AUDIO
    TITLE "00:27:45.03401"
    PERFORMER "Владимир Михайлович Зазнобин. Видеоархив"
    INDEX 01 27:45:03
  TRACK 120 AUDIO
    TITLE "00:27:59.35601"
    PERFORMER "Владимир Михайлович Зазнобин. Видеоархив"
    INDEX 01 27:59:27
  TRACK 121 AUDIO
    TITLE "00:28:13.24844"
    PERFORMER "Владимир Михайлович Зазнобин. Видеоархив"
    INDEX 01 28:13:19
  TRACK 122 AUDIO
    TITLE "00:28:28.09288"
    PERFORMER "Владимир Михайлович Зазнобин. Видеоархив"
    INDEX 01 28:28:07
  TRACK 123 AUDIO
    TITLE "00:28:41.86921"
    PERFORMER "Владимир Михайлович Зазнобин. Видеоархив"
    INDEX 01 28:41:65
  TRACK 124 AUDIO
    TITLE "00:28:57.50313"
    PERFORMER "Владимир Михайлович Зазнобин. Видеоархив"
    INDEX 01 28:57:38
  TRACK 125 AUDIO
    TITLE "00:29:13.05578"
    PERFORMER "Владимир Михайлович Зазнобин. Видеоархив"
    INDEX 01 29:13:04
  TRACK 126 AUDIO
    TITLE "00:29:29.06122"
    PERFORMER "Владимир Михайлович Зазнобин. Видеоархив"
    INDEX 01 29:29:05
  TRACK 127 AUDIO
    TITLE "00:29:42.66340"
    PERFORMER "Владимир Михайлович Зазнобин. Видеоархив"
    INDEX 01 29:42:50
  TRACK 128 AUDIO
    TITLE "00:29:55.46449"
    PERFORMER "Владимир Михайлович Зазнобин. Видеоархив"
    INDEX 01 29:55:35
  TRACK 129 AUDIO
    TITLE "00:30:09.06667"
    PERFORMER "Владимир Михайлович Зазнобин. Видеоархив"
    INDEX 01 30:09:05
  TRACK 130 AUDIO
    TITLE "00:30:22.56435"
    PERFORMER "Владимир Михайлович Зазнобин. Видеоархив"
    INDEX 01 30:22:42
  TRACK 131 AUDIO
    TITLE "00:30:35.70213"
    PERFORMER "Владимир Михайлович Зазнобин. Видеоархив"
    INDEX 01 30:35:53
  TRACK 132 AUDIO
    TITLE "00:30:49.45524"
    PERFORMER "Владимир Михайлович Зазнобин. Видеоархив"
    INDEX 01 30:49:34
  TRACK 133 AUDIO
    TITLE "00:31:03.15029"
    PERFORMER "Владимир Михайлович Зазнобин. Видеоархив"
    INDEX 01 31:03:11
  TRACK 134 AUDIO
    TITLE "00:31:16.63637"
    PERFORMER "Владимир Михайлович Зазнобин. Видеоархив"
    INDEX 01 31:16:48
  TRACK 135 AUDIO
    TITLE "00:31:32.69986"
    PERFORMER "Владимир Михайлович Зазнобин. Видеоархив"
    INDEX 01 31:32:52
  TRACK 136 AUDIO
    TITLE "00:31:46.46458"
    PERFORMER "Владимир Михайлович Зазнобин. Видеоархив"
    INDEX 01 31:46:35
  TRACK 137 AUDIO
    TITLE "00:31:59.77651"
    PERFORMER "Владимир Михайлович Зазнобин. Видеоархив"
    INDEX 01 31:59:58
  TRACK 138 AUDIO
    TITLE "00:32:13.37868"
    PERFORMER "Владимир Михайлович Зазнобин. Видеоархив"
    INDEX 01 32:13:28
  TRACK 139 AUDIO
    TITLE "00:32:26.95764"
    PERFORMER "Владимир Михайлович Зазнобин. Видеоархив"
    INDEX 01 32:26:72
  TRACK 140 AUDIO
    TITLE "00:32:39.92127"
    PERFORMER "Владимир Михайлович Зазнобин. Видеоархив"
    INDEX 01 32:39:69
  TRACK 141 AUDIO
    TITLE "00:32:53.02422"
    PERFORMER "Владимир Михайлович Зазнобин. Видеоархив"
    INDEX 01 32:53:02
  TRACK 142 AUDIO
    TITLE "00:33:07.10240"
    PERFORMER "Владимир Михайлович Зазнобин. Видеоархив"
    INDEX 01 33:07:08
  TRACK 143 AUDIO
    TITLE "00:33:24.25723"
    PERFORMER "Владимир Михайлович Зазнобин. Видеоархив"
    INDEX 01 33:24:19
  TRACK 144 AUDIO
    TITLE "00:33:39.41515"
    PERFORMER "Владимир Михайлович Зазнобин. Видеоархив"
    INDEX 01 33:39:31
  TRACK 145 AUDIO
    TITLE "00:33:53.07537"
    PERFORMER "Владимир Михайлович Зазнобин. Видеоархив"
    INDEX 01 33:53:06
  TRACK 146 AUDIO
    TITLE "00:34:07.87338"
    PERFORMER "Владимир Михайлович Зазнобин. Видеоархив"
    INDEX 01 34:07:66
  TRACK 147 AUDIO
    TITLE "00:34:22.12571"
    PERFORMER "Владимир Михайлович Зазнобин. Видеоархив"
    INDEX 01 34:22:09
  TRACK 148 AUDIO
    TITLE "00:34:36.30839"
    PERFORMER "Владимир Михайлович Зазнобин. Видеоархив"
    INDEX 01 34:36:23
  TRACK 149 AUDIO
    TITLE "00:34:51.74494"
    PERFORMER "Владимир Михайлович Зазнобин. Видеоархив"
    INDEX 01 34:51:56
  TRACK 150 AUDIO
    TITLE "00:35:05.59093"
    PERFORMER "Владимир Михайлович Зазнобин. Видеоархив"
    INDEX 01 35:05:44
  TRACK 151 AUDIO
    TITLE "00:35:19.48336"
    PERFORMER "Владимир Михайлович Зазнобин. Видеоархив"
    INDEX 01 35:19:36
  TRACK 152 AUDIO
    TITLE "00:35:32.48181"
    PERFORMER "Владимир Михайлович Зазнобин. Видеоархив"
    INDEX 01 35:32:36
  TRACK 153 AUDIO
    TITLE "00:35:46.23492"
    PERFORMER "Владимир Михайлович Зазнобин. Видеоархив"
    INDEX 01 35:46:18
  TRACK 154 AUDIO
    TITLE "00:35:59.86032"
    PERFORMER "Владимир Михайлович Зазнобин. Видеоархив"
    INDEX 01 35:59:65
  TRACK 155 AUDIO
    TITLE "00:36:13.95011"
    PERFORMER "Владимир Михайлович Зазнобин. Видеоархив"
    INDEX 01 36:13:71
  TRACK 156 AUDIO
    TITLE "00:36:27.01823"
    PERFORMER "Владимир Михайлович Зазнобин. Видеоархив"
    INDEX 01 36:27:01
  TRACK 157 AUDIO
    TITLE "00:36:40.86422"
    PERFORMER "Владимир Михайлович Зазнобин. Видеоархив"
    INDEX 01 36:40:65
  TRACK 158 AUDIO
    TITLE "00:36:54.91918"
    PERFORMER "Владимир Михайлович Зазнобин. Видеоархив"
    INDEX 01 36:54:69
  TRACK 159 AUDIO
    TITLE "00:37:09.68236"
    PERFORMER "Владимир Михайлович Зазнобин. Видеоархив"
    INDEX 01 37:09:51
  TRACK 160 AUDIO
    TITLE "00:37:23.38902"
    PERFORMER "Владимир Михайлович Зазнобин. Видеоархив"
    INDEX 01 37:23:29
  TRACK 161 AUDIO
    TITLE "00:37:36.22494"
    PERFORMER "Владимир Михайлович Зазнобин. Видеоархив"
    INDEX 01 37:36:17
  TRACK 162 AUDIO
    TITLE "00:37:51.74277"
    PERFORMER "Владимир Михайлович Зазнобин. Видеоархив"
    INDEX 01 37:51:56
  TRACK 163 AUDIO
    TITLE "00:38:05.61197"
    PERFORMER "Владимир Михайлович Зазнобин. Видеоархив"
    INDEX 01 38:05:46
  TRACK 164 AUDIO
    TITLE "00:38:18.79619"
    PERFORMER "Владимир Михайлович Зазнобин. Видеоархив"
    INDEX 01 38:18:60
  TRACK 165 AUDIO
    TITLE "00:38:31.82948"
    PERFORMER "Владимир Михайлович Зазнобин. Видеоархив"
    INDEX 01 38:31:62
  TRACK 166 AUDIO
    TITLE "00:38:44.60735"
    PERFORMER "Владимир Михайлович Зазнобин. Видеоархив"
    INDEX 01 38:44:46
  TRACK 167 AUDIO
    TITLE "00:38:57.89605"
    PERFORMER "Владимир Михайлович Зазнобин. Видеоархив"
    INDEX 01 38:57:67
  TRACK 168 AUDIO
    TITLE "00:39:10.88290"
    PERFORMER "Владимир Михайлович Зазнобин. Видеоархив"
    INDEX 01 39:10:66
  TRACK 169 AUDIO
    TITLE "00:39:23.69560"
    PERFORMER "Владимир Михайлович Зазнобин. Видеоархив"
    INDEX 01 39:23:52
  TRACK 170 AUDIO
    TITLE "00:39:37.82023"
    PERFORMER "Владимир Михайлович Зазнобин. Видеоархив"
    INDEX 01 39:37:62
  TRACK 171 AUDIO
    TITLE "00:39:51.15537"
    PERFORMER "Владимир Михайлович Зазнобин. Видеоархив"
    INDEX 01 39:51:12
  TRACK 172 AUDIO
    TITLE "00:40:05.51220"
    PERFORMER "Владимир Михайлович Зазнобин. Видеоархив"
    INDEX 01 40:05:38
  TRACK 173 AUDIO
    TITLE "00:40:20.24054"
    PERFORMER "Владимир Михайлович Зазнобин. Видеоархив"
    INDEX 01 40:20:18
  TRACK 174 AUDIO
    TITLE "00:40:38.90467"
    PERFORMER "Владимир Михайлович Зазнобин. Видеоархив"
    INDEX 01 40:38:68
  TRACK 175 AUDIO
    TITLE "00:40:53.48209"
    PERFORMER "Владимир Михайлович Зазнобин. Видеоархив"
    INDEX 01 40:53:36
  TRACK 176 AUDIO
    TITLE "00:41:06.96816"
    PERFORMER "Владимир Михайлович Зазнобин. Видеоархив"
    INDEX 01 41:06:73
  TRACK 177 AUDIO
    TITLE "00:41:20.53551"
    PERFORMER "Владимир Михайлович Зазнобин. Видеоархив"
    INDEX 01 41:20:40
  TRACK 178 AUDIO
    TITLE "00:41:36.49451"
    PERFORMER "Владимир Михайлович Зазнобин. Видеоархив"
    INDEX 01 41:36:37
  TRACK 179 AUDIO
    TITLE "00:41:51.36218"
    PERFORMER "Владимир Михайлович Зазнобин. Видеоархив"
    INDEX 01 41:51:27
  TRACK 180 AUDIO
    TITLE "00:42:05.11528"
    PERFORMER "Владимир Михайлович Зазнобин. Видеоархив"
    INDEX 01 42:05:09
  TRACK 181 AUDIO
    TITLE "00:42:18.78712"
    PERFORMER "Владимир Михайлович Зазнобин. Видеоархив"
    INDEX 01 42:18:59
  TRACK 182 AUDIO
    TITLE "00:42:33.17878"
    PERFORMER "Владимир Михайлович Зазнобин. Видеоархив"
    INDEX 01 42:33:13
  TRACK 183 AUDIO
    TITLE "00:42:46.46748"
    PERFORMER "Владимир Михайлович Зазнобин. Видеоархив"
    INDEX 01 42:46:35
  TRACK 184 AUDIO
    TITLE "00:43:00.34830"
    PERFORMER "Владимир Михайлович Зазнобин. Видеоархив"
    INDEX 01 43:00:26
  TRACK 185 AUDIO
    TITLE "00:43:13.98531"
    PERFORMER "Владимир Михайлович Зазнобин. Видеоархив"
    INDEX 01 43:13:74
  TRACK 186 AUDIO
    TITLE "00:43:26.94893"
    PERFORMER "Владимир Михайлович Зазнобин. Видеоархив"
    INDEX 01 43:26:71
  TRACK 187 AUDIO
    TITLE "00:43:40.19120"
    PERFORMER "Владимир Михайлович Зазнобин. Видеоархив"
    INDEX 01 43:40:14
  TRACK 188 AUDIO
    TITLE "00:43:53.00390"
    PERFORMER "Владимир Михайлович Зазнобин. Видеоархив"
    INDEX 01 43:53:00
  TRACK 189 AUDIO
    TITLE "00:44:07.01243"
    PERFORMER "Владимир Михайлович Зазнобин. Видеоархив"
    INDEX 01 44:07:01
  TRACK 190 AUDIO
    TITLE "00:44:19.72063"
    PERFORMER "Владимир Михайлович Зазнобин. Видеоархив"
    INDEX 01 44:19:54
  TRACK 191 AUDIO
    TITLE "00:44:32.57977"
    PERFORMER "Владимир Михайлович Зазнобин. Видеоархив"
    INDEX 01 44:32:43
  TRACK 192 AUDIO
    TITLE "00:44:45.28798"
    PERFORMER "Владимир Михайлович Зазнобин. Видеоархив"
    INDEX 01 44:45:22
  TRACK 193 AUDIO
    TITLE "00:45:00.10921"
    PERFORMER "Владимир Михайлович Зазнобин. Видеоархив"
    INDEX 01 45:00:08
  TRACK 194 AUDIO
    TITLE "00:45:12.81741"
    PERFORMER "Владимир Михайлович Зазнобин. Видеоархив"
    INDEX 01 45:12:61
  TRACK 195 AUDIO
    TITLE "00:45:25.88553"
    PERFORMER "Владимир Михайлович Зазнобин. Видеоархив"
    INDEX 01 45:25:66
  TRACK 196 AUDIO
    TITLE "00:45:38.96526"
    PERFORMER "Владимир Михайлович Зазнобин. Видеоархив"
    INDEX 01 45:38:72
  TRACK 197 AUDIO
    TITLE "00:45:54.18122"
    PERFORMER "Владимир Михайлович Зазнобин. Видеоархив"
    INDEX 01 45:54:14
  TRACK 198 AUDIO
    TITLE "00:46:22.89959"
    PERFORMER "Владимир Михайлович Зазнобин. Видеоархив"
    INDEX 01 46:22:67
  TRACK 199 AUDIO
    TITLE "00:46:35.89805"
    PERFORMER "Владимир Михайлович Зазнобин. Видеоархив"
    INDEX 01 46:35:67
  TRACK 200 AUDIO
    TITLE "00:46:48.65270"
    PERFORMER "Владимир Михайлович Зазнобин. Видеоархив"
    INDEX 01 46:48:49
  TRACK 201 AUDIO
    TITLE "00:47:04.34467"
    PERFORMER "Владимир Михайлович Зазнобин. Видеоархив"
    INDEX 01 47:04:26
  TRACK 202 AUDIO
    TITLE "00:47:19.00336"
    PERFORMER "Владимир Михайлович Зазнобин. Видеоархив"
    INDEX 01 47:19:00
  TRACK 203 AUDIO
    TITLE "00:47:32.05986"
    PERFORMER "Владимир Михайлович Зазнобин. Видеоархив"
    INDEX 01 47:32:04
  TRACK 204 AUDIO
    TITLE "00:47:45.80136"
    PERFORMER "Владимир Михайлович Зазнобин. Видеоархив"
    INDEX 01 47:45:60
  TRACK 205 AUDIO
    TITLE "00:48:00.78512"
    PERFORMER "Владимир Михайлович Зазнобин. Видеоархив"
    INDEX 01 48:00:59
  TRACK 206 AUDIO
    TITLE "00:48:13.80680"
    PERFORMER "Владимир Михайлович Зазнобин. Видеоархив"
    INDEX 01 48:13:61
  TRACK 207 AUDIO
    TITLE "00:48:26.79365"
    PERFORMER "Владимир Михайлович Зазнобин. Видеоархив"
    INDEX 01 48:26:60
  TRACK 208 AUDIO
    TITLE "00:48:39.82694"
    PERFORMER "Владимир Михайлович Зазнобин. Видеоархив"
    INDEX 01 48:39:62
  TRACK 209 AUDIO
    TITLE "00:48:52.81379"
    PERFORMER "Владимир Михайлович Зазнобин. Видеоархив"
    INDEX 01 48:52:61
  TRACK 210 AUDIO
    TITLE "00:49:05.95156"
    PERFORMER "Владимир Михайлович Зазнобин. Видеоархив"
    INDEX 01 49:05:71
  TRACK 211 AUDIO
    TITLE "00:49:20.54059"
    PERFORMER "Владимир Михайлович Зазнобин. Видеоархив"
    INDEX 01 49:20:41
  TRACK 212 AUDIO
    TITLE "00:49:34.04989"
    PERFORMER "Владимир Михайлович Зазнобин. Видеоархив"
    INDEX 01 49:34:04
  TRACK 213 AUDIO
    TITLE "00:49:48.08163"
    PERFORMER "Владимир Михайлович Зазнобин. Видеоархив"
    INDEX 01 49:48:06
  TRACK 214 AUDIO
    TITLE "00:50:01.49805"
    PERFORMER "Владимир Михайлович Зазнобин. Видеоархив"
    INDEX 01 50:01:37
  TRACK 215 AUDIO
    TITLE "00:50:14.92608"
    PERFORMER "Владимир Михайлович Зазнобин. Видеоархив"
    INDEX 01 50:14:69
  TRACK 216 AUDIO
    TITLE "00:50:29.53832"
    PERFORMER "Владимир Михайлович Зазнобин. Видеоархив"
    INDEX 01 50:29:40
  TRACK 217 AUDIO
    TITLE "00:50:42.94313"
    PERFORMER "Владимир Михайлович Зазнобин. Видеоархив"
    INDEX 01 50:42:71
  TRACK 218 AUDIO
    TITLE "00:50:55.66295"
    PERFORMER "Владимир Михайлович Зазнобин. Видеоархив"
    INDEX 01 50:55:50
  TRACK 219 AUDIO
    TITLE "00:51:09.14902"
    PERFORMER "Владимир Михайлович Зазнобин. Видеоархив"
    INDEX 01 51:09:11
  TRACK 220 AUDIO
    TITLE "00:51:22.77442"
    PERFORMER "Владимир Михайлович Зазнобин. Видеоархив"
    INDEX 01 51:22:58
  TRACK 221 AUDIO
    TITLE "00:51:35.29687"
    PERFORMER "Владимир Михайлович Зазнобин. Видеоархив"
    INDEX 01 51:35:22
  TRACK 222 AUDIO
    TITLE "00:51:48.93388"
    PERFORMER "Владимир Михайлович Зазнобин. Видеоархив"
    INDEX 01 51:48:70
  TRACK 223 AUDIO
    TITLE "00:52:03.22104"
    PERFORMER "Владимир Михайлович Зазнобин. Видеоархив"
    INDEX 01 52:03:17
  TRACK 224 AUDIO
    TITLE "00:52:17.10186"
    PERFORMER "Владимир Михайлович Зазнобин. Видеоархив"
    INDEX 01 52:17:08
  TRACK 225 AUDIO
    TITLE "00:52:29.68236"
    PERFORMER "Владимир Михайлович Зазнобин. Видеоархив"
    INDEX 01 52:29:51
  TRACK 226 AUDIO
    TITLE "00:52:42.72726"
    PERFORMER "Владимир Михайлович Зазнобин. Видеоархив"
    INDEX 01 52:42:55
  TRACK 227 AUDIO
    TITLE "00:52:57.20018"
    PERFORMER "Владимир Михайлович Зазнобин. Видеоархив"
    INDEX 01 52:57:15
  TRACK 228 AUDIO
    TITLE "00:53:11.68472"
    PERFORMER "Владимир Михайлович Зазнобин. Видеоархив"
    INDEX 01 53:11:51
  TRACK 229 AUDIO
    TITLE "00:53:24.26522"
    PERFORMER "Владимир Михайлович Зазнобин. Видеоархив"
    INDEX 01 53:24:20
  TRACK 230 AUDIO
    TITLE "00:53:38.34340"
    PERFORMER "Владимир Михайлович Зазнобин. Видеоархив"
    INDEX 01 53:38:26
  TRACK 231 AUDIO
    TITLE "00:53:53.26912"
    PERFORMER "Владимир Михайлович Зазнобин. Видеоархив"
    INDEX 01 53:53:20
  TRACK 232 AUDIO
    TITLE "00:54:06.10503"
    PERFORMER "Владимир Михайлович Зазнобин. Видеоархив"
    INDEX 01 54:06:08
  TRACK 233 AUDIO
    TITLE "00:54:19.27764"
    PERFORMER "Владимир Михайлович Зазнобин. Видеоархив"
    INDEX 01 54:19:21
  TRACK 234 AUDIO
    TITLE "00:54:33.82023"
    PERFORMER "Владимир Михайлович Зазнобин. Видеоархив"
    INDEX 01 54:33:62
  TRACK 235 AUDIO
    TITLE "00:54:46.59810"
    PERFORMER "Владимир Михайлович Зазнобин. Видеоархив"
    INDEX 01 54:46:45
  TRACK 236 AUDIO
    TITLE "00:55:00.23510"
    PERFORMER "Владимир Михайлович Зазнобин. Видеоархив"
    INDEX 01 55:00:18
  TRACK 237 AUDIO
    TITLE "00:55:15.45107"
    PERFORMER "Владимир Михайлович Зазнобин. Видеоархив"
    INDEX 01 55:15:34
  TRACK 238 AUDIO
    TITLE "00:55:29.38993"
    PERFORMER "Владимир Михайлович Зазнобин. Видеоархив"
    INDEX 01 55:29:29
  TRACK 239 AUDIO
    TITLE "00:55:43.87447"
    PERFORMER "Владимир Михайлович Зазнобин. Видеоархив"
    INDEX 01 55:43:66
  TRACK 240 AUDIO
    TITLE "00:55:57.91782"
    PERFORMER "Владимир Михайлович Зазнобин. Видеоархив"
    INDEX 01 55:57:69
  TRACK 241 AUDIO
    TITLE "00:56:11.12526"
    PERFORMER "Владимир Михайлович Зазнобин. Видеоархив"
    INDEX 01 56:11:09
  TRACK 242 AUDIO
    TITLE "00:56:25.35438"
    PERFORMER "Владимир Михайлович Зазнобин. Видеоархив"
    INDEX 01 56:25:27
  TRACK 243 AUDIO
    TITLE "00:56:39.20036"
    PERFORMER "Владимир Михайлович Зазнобин. Видеоархив"
    INDEX 01 56:39:15
  TRACK 244 AUDIO
    TITLE "00:56:52.62839"
    PERFORMER "Владимир Михайлович Зазнобин. Видеоархив"
    INDEX 01 56:52:47
  TRACK 245 AUDIO
    TITLE "00:57:05.89388"
    PERFORMER "Владимир Михайлович Зазнобин. Видеоархив"
    INDEX 01 57:05:67
  TRACK 246 AUDIO
    TITLE "00:57:18.59048"
    PERFORMER "Владимир Михайлович Зазнобин. Видеоархив"
    INDEX 01 57:18:44
  TRACK 247 AUDIO
    TITLE "00:57:31.07810"
    PERFORMER "Владимир Михайлович Зазнобин. Видеоархив"
    INDEX 01 57:31:06
  TRACK 248 AUDIO
    TITLE "00:57:44.90086"
    PERFORMER "Владимир Михайлович Зазнобин. Видеоархив"
    INDEX 01 57:44:68
  TRACK 249 AUDIO
    TITLE "00:57:57.95737"
    PERFORMER "Владимир Михайлович Зазнобин. Видеоархив"
    INDEX 01 57:57:72
  TRACK 250 AUDIO
    TITLE "00:58:10.74685"
    PERFORMER "Владимир Михайлович Зазнобин. Видеоархив"
    INDEX 01 58:10:56
  TRACK 251 AUDIO
    TITLE "00:58:23.87302"
    PERFORMER "Владимир Михайлович Зазнобин. Видеоархив"
    INDEX 01 58:23:65
  TRACK 252 AUDIO
    TITLE "00:58:38.18340"
    PERFORMER "Владимир Михайлович Зазнобин. Видеоархив"
    INDEX 01 58:38:14
  TRACK 253 AUDIO
    TITLE "00:58:53.29488"
    PERFORMER "Владимир Михайлович Зазнобин. Видеоархив"
    INDEX 01 58:53:22
  TRACK 254 AUDIO
    TITLE "00:59:06.17723"
    PERFORMER "Владимир Михайлович Зазнобин. Видеоархив"
    INDEX 01 59:06:13
  TRACK 255 AUDIO
    TITLE "00:59:18.74612"
    PERFORMER "Владимир Михайлович Зазнобин. Видеоархив"
    INDEX 01 59:18:56
  TRACK 256 AUDIO
    TITLE "00:59:31.75619"
    PERFORMER "Владимир Михайлович Зазнобин. Видеоархив"
    INDEX 01 59:31:57
  TRACK 257 AUDIO
    TITLE "00:59:45.16100"
    PERFORMER "Владимир Михайлович Зазнобин. Видеоархив"
    INDEX 01 59:45:12
  TRACK 258 AUDIO
    TITLE "00:59:57.90404"
    PERFORMER "Владимир Михайлович Зазнобин. Видеоархив"
    INDEX 01 59:57:68
  TRACK 259 AUDIO
    TITLE "01:00:14.00236"
    PERFORMER "Владимир Михайлович Зазнобин. Видеоархив"
    INDEX 01 60:14:00
  TRACK 260 AUDIO
    TITLE "01:00:33.74621"
    PERFORMER "Владимир Михайлович Зазнобин. Видеоархив"
    INDEX 01 60:33:56
  TRACK 261 AUDIO
    TITLE "01:00:50.14639"
    PERFORMER "Владимир Михайлович Зазнобин. Видеоархив"
    INDEX 01 60:50:11
  TRACK 262 AUDIO
    TITLE "01:01:04.75864"
    PERFORMER "Владимир Михайлович Зазнобин. Видеоархив"
    INDEX 01 61:04:57
  TRACK 263 AUDIO
    TITLE "01:01:17.82676"
    PERFORMER "Владимир Михайлович Зазнобин. Видеоархив"
    INDEX 01 61:17:62
  TRACK 264 AUDIO
    TITLE "01:01:33.80898"
    PERFORMER "Владимир Михайлович Зазнобин. Видеоархив"
    INDEX 01 61:33:61
  TRACK 265 AUDIO
    TITLE "01:01:48.42122"
    PERFORMER "Владимир Михайлович Зазнобин. Видеоархив"
    INDEX 01 61:48:32
  TRACK 266 AUDIO
    TITLE "01:02:02.41814"
    PERFORMER "Владимир Михайлович Зазнобин. Видеоархив"
    INDEX 01 62:02:31
  TRACK 267 AUDIO
    TITLE "01:02:16.58921"
    PERFORMER "Владимир Михайлович Зазнобин. Видеоархив"
    INDEX 01 62:16:44
  TRACK 268 AUDIO
    TITLE "01:02:30.95764"
    PERFORMER "Владимир Михайлович Зазнобин. Видеоархив"
    INDEX 01 62:30:72
  TRACK 269 AUDIO
    TITLE "01:02:49.23864"
    PERFORMER "Владимир Михайлович Зазнобин. Видеоархив"
    INDEX 01 62:49:18
  TRACK 270 AUDIO
    TITLE "01:03:01.83075"
    PERFORMER "Владимир Михайлович Зазнобин. Видеоархив"
    INDEX 01 63:01:62
  TRACK 271 AUDIO
    TITLE "01:03:17.96390"
    PERFORMER "Владимир Михайлович Зазнобин. Видеоархив"
    INDEX 01 63:17:72
  TRACK 272 AUDIO
    TITLE "01:03:30.50957"
    PERFORMER "Владимир Михайлович Зазнобин. Видеоархив"
    INDEX 01 63:30:38
  TRACK 273 AUDIO
    TITLE "01:03:44.78512"
    PERFORMER "Владимир Михайлович Зазнобин. Видеоархив"
    INDEX 01 63:44:59
  TRACK 274 AUDIO
    TITLE "01:03:58.96780"
    PERFORMER "Владимир Михайлович Зазнобин. Видеоархив"
    INDEX 01 63:58:73
  TRACK 275 AUDIO
    TITLE "01:04:16.20390"
    PERFORMER "Владимир Михайлович Зазнобин. Видеоархив"
    INDEX 01 64:16:15
  TRACK 276 AUDIO
    TITLE "01:04:28.99338"
    PERFORMER "Владимир Михайлович Зазнобин. Видеоархив"
    INDEX 01 64:29:00
  TRACK 277 AUDIO
    TITLE "01:04:43.58240"
    PERFORMER "Владимир Михайлович Зазнобин. Видеоархив"
    INDEX 01 64:43:44
  TRACK 278 AUDIO
    TITLE "01:04:56.04680"
    PERFORMER "Владимир Михайлович Зазнобин. Видеоархив"
    INDEX 01 64:56:04
  TRACK 279 AUDIO
    TITLE "01:05:09.14975"
    PERFORMER "Владимир Михайлович Зазнобин. Видеоархив"
    INDEX 01 65:09:11
  TRACK 280 AUDIO
    TITLE "01:05:27.73261"
    PERFORMER "Владимир Михайлович Зазнобин. Видеоархив"
    INDEX 01 65:27:55
  TRACK 281 AUDIO
    TITLE "01:05:41.29995"
    PERFORMER "Владимир Михайлович Зазнобин. Видеоархив"
    INDEX 01 65:41:22
  TRACK 282 AUDIO
    TITLE "01:05:54.73959"
    PERFORMER "Владимир Михайлович Зазнобин. Видеоархив"
    INDEX 01 65:54:55
  TRACK 283 AUDIO
    TITLE "01:06:07.66839"
    PERFORMER "Владимир Михайлович Зазнобин. Видеоархив"
    INDEX 01 66:07:50
  TRACK 284 AUDIO
    TITLE "01:06:21.08481"
    PERFORMER "Владимир Михайлович Зазнобин. Видеоархив"
    INDEX 01 66:21:06
  TRACK 285 AUDIO
    TITLE "01:06:33.68853"
    PERFORMER "Владимир Михайлович Зазнобин. Видеоархив"
    INDEX 01 66:33:52
  TRACK 286 AUDIO
    TITLE "01:06:46.67537"
    PERFORMER "Владимир Михайлович Зазнобин. Видеоархив"
    INDEX 01 66:46:51
  TRACK 287 AUDIO
    TITLE "01:07:00.71873"
    PERFORMER "Владимир Михайлович Зазнобин. Видеоархив"
    INDEX 01 67:00:54
  TRACK 288 AUDIO
    TITLE "01:07:14.56472"
    PERFORMER "Владимир Михайлович Зазнобин. Видеоархив"
    INDEX 01 67:14:42
  TRACK 289 AUDIO
    TITLE "01:07:28.08562"
    PERFORMER "Владимир Михайлович Зазнобин. Видеоархив"
    INDEX 01 67:28:06
  TRACK 290 AUDIO
    TITLE "01:07:41.76907"
    PERFORMER "Владимир Михайлович Зазнобин. Видеоархив"
    INDEX 01 67:41:58
  TRACK 291 AUDIO
    TITLE "01:07:55.39447"
    PERFORMER "Владимир Михайлович Зазнобин. Видеоархив"
    INDEX 01 67:55:30
  TRACK 292 AUDIO
    TITLE "01:08:08.10268"
    PERFORMER "Владимир Михайлович Зазнобин. Видеоархив"
    INDEX 01 68:08:08
  TRACK 293 AUDIO
    TITLE "01:08:20.96181"
    PERFORMER "Владимир Михайлович Зазнобин. Видеоархив"
    INDEX 01 68:20:72
  TRACK 294 AUDIO
    TITLE "01:08:34.50594"
    PERFORMER "Владимир Михайлович Зазнобин. Видеоархив"
    INDEX 01 68:34:38
  TRACK 295 AUDIO
    TITLE "01:08:48.82794"
    PERFORMER "Владимир Михайлович Зазнобин. Видеоархив"
    INDEX 01 68:48:62
  TRACK 296 AUDIO
    TITLE "01:09:02.63909"
    PERFORMER "Владимир Михайлович Зазнобин. Видеоархив"
    INDEX 01 69:02:48
  TRACK 297 AUDIO
    TITLE "01:09:15.34730"
    PERFORMER "Владимир Михайлович Зазнобин. Видеоархив"
    INDEX 01 69:15:26
  TRACK 298 AUDIO
    TITLE "01:09:28.75211"
    PERFORMER "Владимир Михайлович Зазнобин. Видеоархив"
    INDEX 01 69:28:56
  TRACK 299 AUDIO
    TITLE "01:09:41.92472"
    PERFORMER "Владимир Михайлович Зазнобин. Видеоархив"
    INDEX 01 69:41:69
  TRACK 300 AUDIO
    TITLE "01:09:55.21342"
    PERFORMER "Владимир Михайлович Зазнобин. Видеоархив"
    INDEX 01 69:55:16
  TRACK 301 AUDIO
    TITLE "01:10:09.93016"
    PERFORMER "Владимир Михайлович Зазнобин. Видеоархив"
    INDEX 01 70:09:70
  TRACK 302 AUDIO
    TITLE "01:10:30.64925"
    PERFORMER "Владимир Михайлович Зазнобин. Видеоархив"
    INDEX 01 70:30:49
  TRACK 303 AUDIO
    TITLE "01:10:43.71737"
    PERFORMER "Владимир Михайлович Зазнобин. Видеоархив"
    INDEX 01 70:43:54
  TRACK 304 AUDIO
    TITLE "01:10:58.12063"
    PERFORMER "Владимир Михайлович Зазнобин. Видеоархив"
    INDEX 01 70:58:09
  TRACK 305 AUDIO
    TITLE "01:11:12.46585"
    PERFORMER "Владимир Михайлович Зазнобин. Видеоархив"
    INDEX 01 71:12:35
  TRACK 306 AUDIO
    TITLE "01:11:30.65397"
    PERFORMER "Владимир Михайлович Зазнобин. Видеоархив"
    INDEX 01 71:30:49
  TRACK 307 AUDIO
    TITLE "01:11:43.58277"
    PERFORMER "Владимир Михайлович Зазнобин. Видеоархив"
    INDEX 01 71:43:44
  TRACK 308 AUDIO
    TITLE "01:11:58.21823"
    PERFORMER "Владимир Михайлович Зазнобин. Видеоархив"
    INDEX 01 71:58:16
  TRACK 309 AUDIO
    TITLE "01:12:17.33515"
    PERFORMER "Владимир Михайлович Зазнобин. Видеоархив"
    INDEX 01 72:17:25
  TRACK 310 AUDIO
    TITLE "01:12:36.30113"
    PERFORMER "Владимир Михайлович Зазнобин. Видеоархив"
    INDEX 01 72:36:23
  TRACK 311 AUDIO
    TITLE "01:12:49.69433"
    PERFORMER "Владимир Михайлович Зазнобин. Видеоархив"
    INDEX 01 72:49:52
  TRACK 312 AUDIO
    TITLE "01:13:03.98150"
    PERFORMER "Владимир Михайлович Зазнобин. Видеоархив"
    INDEX 01 73:03:74
  TRACK 313 AUDIO
    TITLE "01:13:17.08444"
    PERFORMER "Владимир Михайлович Зазнобин. Видеоархив"
    INDEX 01 73:17:06
  TRACK 314 AUDIO
    TITLE "01:13:30.25705"
    PERFORMER "Владимир Михайлович Зазнобин. Видеоархив"
    INDEX 01 73:30:19
  TRACK 315 AUDIO
    TITLE "01:13:44.21914"
    PERFORMER "Владимир Михайлович Зазнобин. Видеоархив"
    INDEX 01 73:44:16
  TRACK 316 AUDIO
    TITLE "01:13:58.59918"
    PERFORMER "Владимир Михайлович Зазнобин. Видеоархив"
    INDEX 01 73:58:45
  TRACK 317 AUDIO
    TITLE "01:14:19.26023"
    PERFORMER "Владимир Михайлович Зазнобин. Видеоархив"
    INDEX 01 74:19:20
  TRACK 318 AUDIO
    TITLE "01:14:44.06603"
    PERFORMER "Владимир Михайлович Зазнобин. Видеоархив"
    INDEX 01 74:44:05
  TRACK 319 AUDIO
    TITLE "01:14:57.23864"
    PERFORMER "Владимир Михайлович Зазнобин. Видеоархив"
    INDEX 01 74:57:18
  TRACK 320 AUDIO
    TITLE "01:15:10.94531"
    PERFORMER "Владимир Михайлович Зазнобин. Видеоархив"
    INDEX 01 75:10:71
  TRACK 321 AUDIO
    TITLE "01:15:23.36327"
    PERFORMER "Владимир Михайлович Зазнобин. Видеоархив"
    INDEX 01 75:23:27
  TRACK 322 AUDIO
    TITLE "01:15:44.07075"
    PERFORMER "Владимир Михайлович Зазнобин. Видеоархив"
    INDEX 01 75:44:05
  TRACK 323 AUDIO
    TITLE "01:15:57.56844"
    PERFORMER "Владимир Михайлович Зазнобин. Видеоархив"
    INDEX 01 75:57:43
  TRACK 324 AUDIO
    TITLE "01:16:12.14585"
    PERFORMER "Владимир Михайлович Зазнобин. Видеоархив"
    INDEX 01 76:12:11
  TRACK 325 AUDIO
    TITLE "01:16:25.41134"
    PERFORMER "Владимир Михайлович Зазнобин. Видеоархив"
    INDEX 01 76:25:31
  TRACK 326 AUDIO
    TITLE "01:16:38.67683"
    PERFORMER "Владимир Михайлович Зазнобин. Видеоархив"
    INDEX 01 76:38:51
  TRACK 327 AUDIO
    TITLE "01:16:53.42839"
    PERFORMER "Владимир Михайлович Зазнобин. Видеоархив"
    INDEX 01 76:53:32
  TRACK 328 AUDIO
    TITLE "01:17:06.82159"
    PERFORMER "Владимир Михайлович Зазнобин. Видеоархив"
    INDEX 01 77:06:62
  TRACK 329 AUDIO
    TITLE "01:17:19.72717"
    PERFORMER "Владимир Михайлович Зазнобин. Видеоархив"
    INDEX 01 77:19:55
  TRACK 330 AUDIO
    TITLE "01:17:35.07084"
    PERFORMER "Владимир Михайлович Зазнобин. Видеоархив"
    INDEX 01 77:35:05
  TRACK 331 AUDIO
    TITLE "01:17:51.18077"
    PERFORMER "Владимир Михайлович Зазнобин. Видеоархив"
    INDEX 01 77:51:14
  TRACK 332 AUDIO
    TITLE "01:18:05.21252"
    PERFORMER "Владимир Михайлович Зазнобин. Видеоархив"
    INDEX 01 78:05:16
  TRACK 333 AUDIO
    TITLE "01:18:19.96408"
    PERFORMER "Владимир Михайлович Зазнобин. Видеоархив"
    INDEX 01 78:19:72
  TRACK 334 AUDIO
    TITLE "01:18:34.61116"
    PERFORMER "Владимир Михайлович Зазнобин. Видеоархив"
    INDEX 01 78:34:46
  TRACK 335 AUDIO
    TITLE "01:18:53.05469"
    PERFORMER "Владимир Михайлович Зазнобин. Видеоархив"
    INDEX 01 78:53:04
  TRACK 336 AUDIO
    TITLE "01:19:10.01215"
    PERFORMER "Владимир Михайлович Зазнобин. Видеоархив"
    INDEX 01 79:10:01
  TRACK 337 AUDIO
    TITLE "01:19:22.76680"
    PERFORMER "Владимир Михайлович Зазнобин. Видеоархив"
    INDEX 01 79:22:58
  TRACK 338 AUDIO
    TITLE "01:19:35.44018"
    PERFORMER "Владимир Михайлович Зазнобин. Видеоархив"
    INDEX 01 79:35:33
  TRACK 339 AUDIO
    TITLE "01:19:48.91465"
    PERFORMER "Владимир Михайлович Зазнобин. Видеоархив"
    INDEX 01 79:48:69
  TRACK 340 AUDIO
    TITLE "01:20:04.87365"
    PERFORMER "Владимир Михайлович Зазнобин. Видеоархив"
    INDEX 01 80:04:66
  TRACK 341 AUDIO
    TITLE "01:20:18.84735"
    PERFORMER "Владимир Михайлович Зазнобин. Видеоархив"
    INDEX 01 80:18:64
  TRACK 342 AUDIO
    TITLE "01:20:31.27692"
    PERFORMER "Владимир Михайлович Зазнобин. Видеоархив"
    INDEX 01 80:31:21
  TRACK 343 AUDIO
    TITLE "01:20:47.21270"
    PERFORMER "Владимир Михайлович Зазнобин. Видеоархив"
    INDEX 01 80:47:16
  TRACK 344 AUDIO
    TITLE "01:20:59.86286"
    PERFORMER "Владимир Михайлович Зазнобин. Видеоархив"
    INDEX 01 80:59:65
  TRACK 345 AUDIO
    TITLE "01:21:14.91628"
    PERFORMER "Владимир Михайлович Зазнобин. Видеоархив"
    INDEX 01 81:14:69
  TRACK 346 AUDIO
    TITLE "01:21:32.34975"
    PERFORMER "Владимир Михайлович Зазнобин. Видеоархив"
    INDEX 01 81:32:26
  TRACK 347 AUDIO
    TITLE "01:21:44.83737"
    PERFORMER "Владимир Михайлович Зазнобин. Видеоархив"
    INDEX 01 81:44:63
  TRACK 348 AUDIO
    TITLE "01:21:58.16091"
    PERFORMER "Владимир Михайлович Зазнобин. Видеоархив"
    INDEX 01 81:58:12
  TRACK 349 AUDIO
    TITLE "01:22:13.17950"
    PERFORMER "Владимир Михайлович Зазнобин. Видеоархив"
    INDEX 01 82:13:13
  TRACK 350 AUDIO
    TITLE "01:22:26.39855"
    PERFORMER "Владимир Михайлович Зазнобин. Видеоархив"
    INDEX 01 82:26:30
  TRACK 351 AUDIO
    TITLE "01:22:40.20971"
    PERFORMER "Владимир Михайлович Зазнобин. Видеоархив"
    INDEX 01 82:40:16
  TRACK 352 AUDIO
    TITLE "01:22:53.49841"
    PERFORMER "Владимир Михайлович Зазнобин. Видеоархив"
    INDEX 01 82:53:37
  TRACK 353 AUDIO
    TITLE "01:23:06.85678"
    PERFORMER "Владимир Михайлович Зазнобин. Видеоархив"
    INDEX 01 83:06:64
  TRACK 354 AUDIO
    TITLE "01:23:22.68807"
    PERFORMER "Владимир Михайлович Зазнобин. Видеоархив"
    INDEX 01 83:22:52
  TRACK 355 AUDIO
    TITLE "01:23:36.53406"
    PERFORMER "Владимир Михайлович Зазнобин. Видеоархив"
    INDEX 01 83:36:40
  TRACK 356 AUDIO
    TITLE "01:23:50.28717"
    PERFORMER "Владимир Михайлович Зазнобин. Видеоархив"
    INDEX 01 83:50:22
  TRACK 357 AUDIO
    TITLE "01:24:03.11147"
    PERFORMER "Владимир Михайлович Зазнобин. Видеоархив"
    INDEX 01 84:03:08
  TRACK 358 AUDIO
    TITLE "01:24:20.23147"
    PERFORMER "Владимир Михайлович Зазнобин. Видеоархив"
    INDEX 01 84:20:17
  TRACK 359 AUDIO
    TITLE "01:24:32.90485"
    PERFORMER "Владимир Михайлович Зазнобин. Видеоархив"
    INDEX 01 84:32:68
  TRACK 360 AUDIO
    TITLE "01:24:46.24000"
    PERFORMER "Владимир Михайлович Зазнобин. Видеоархив"
    INDEX 01 84:46:18
  TRACK 361 AUDIO
    TITLE "01:25:00.66649"
    PERFORMER "Владимир Михайлович Зазнобин. Видеоархив"
    INDEX 01 85:00:50
  TRACK 362 AUDIO
    TITLE "01:25:13.43274"
    PERFORMER "Владимир Михайлович Зазнобин. Видеоархив"
    INDEX 01 85:13:32
  TRACK 363 AUDIO
    TITLE "01:25:29.75166"
    PERFORMER "Владимир Михайлович Зазнобин. Видеоархив"
    INDEX 01 85:29:56
  TRACK 364 AUDIO
    TITLE "01:25:42.80816"
    PERFORMER "Владимир Михайлович Зазнобин. Видеоархив"
    INDEX 01 85:42:61
  TRACK 365 AUDIO
    TITLE "01:25:55.84145"
    PERFORMER "Владимир Михайлович Зазнобин. Видеоархив"
    INDEX 01 85:55:63
  TRACK 366 AUDIO
    TITLE "01:26:08.58449"
    PERFORMER "Владимир Михайлович Зазнобин. Видеоархив"
    INDEX 01 86:08:44
  TRACK 367 AUDIO
    TITLE "01:26:21.89642"
    PERFORMER "Владимир Михайлович Зазнобин. Видеоархив"
    INDEX 01 86:21:67
  TRACK 368 AUDIO
    TITLE "01:26:36.35773"
    PERFORMER "Владимир Михайлович Зазнобин. Видеоархив"
    INDEX 01 86:36:27
  TRACK 369 AUDIO
    TITLE "01:26:48.84535"
    PERFORMER "Владимир Михайлович Зазнобин. Видеоархив"
    INDEX 01 86:48:63
  TRACK 370 AUDIO
    TITLE "01:27:03.35311"
    PERFORMER "Владимир Михайлович Зазнобин. Видеоархив"
    INDEX 01 87:03:26
  TRACK 371 AUDIO
    TITLE "01:27:16.24707"
    PERFORMER "Владимир Михайлович Зазнобин. Видеоархив"
    INDEX 01 87:16:19
  TRACK 372 AUDIO
    TITLE "01:27:29.29197"
    PERFORMER "Владимир Михайлович Зазнобин. Видеоархив"
    INDEX 01 87:29:22
  TRACK 373 AUDIO
    TITLE "01:27:42.63873"
    PERFORMER "Владимир Михайлович Зазнобин. Видеоархив"
    INDEX 01 87:42:48
  TRACK 374 AUDIO
    TITLE "01:27:55.30050"
    PERFORMER "Владимир Михайлович Зазнобин. Видеоархив"
    INDEX 01 87:55:23
  TRACK 375 AUDIO
    TITLE "01:28:08.99556"
    PERFORMER "Владимир Михайлович Зазнобин. Видеоархив"
    INDEX 01 88:09:00
  TRACK 376 AUDIO
    TITLE "01:28:22.42358"
    PERFORMER "Владимир Михайлович Зазнобин. Видеоархив"
    INDEX 01 88:22:32
  TRACK 377 AUDIO
    TITLE "01:28:36.42050"
    PERFORMER "Владимир Михайлович Зазнобин. Видеоархив"
    INDEX 01 88:36:32
  TRACK 378 AUDIO
    TITLE "01:28:49.34930"
    PERFORMER "Владимир Михайлович Зазнобин. Видеоархив"
    INDEX 01 88:49:26
  TRACK 379 AUDIO
    TITLE "01:29:01.81370"
    PERFORMER "Владимир Михайлович Зазнобин. Видеоархив"
    INDEX 01 89:01:61
  TRACK 380 AUDIO
    TITLE "01:29:14.93986"
    PERFORMER "Владимир Михайлович Зазнобин. Видеоархив"
    INDEX 01 89:14:70
  TRACK 381 AUDIO
    TITLE "01:29:29.44762"
    PERFORMER "Владимир Михайлович Зазнобин. Видеоархив"
    INDEX 01 89:29:34
  TRACK 382 AUDIO
    TITLE "01:29:43.49098"
    PERFORMER "Владимир Михайлович Зазнобин. Видеоархив"
    INDEX 01 89:43:37
  TRACK 383 AUDIO
    TITLE "01:29:58.26576"
    PERFORMER "Владимир Михайлович Зазнобин. Видеоархив"
    INDEX 01 89:58:20
  TRACK 384 AUDIO
    TITLE "01:30:10.86948"
    PERFORMER "Владимир Михайлович Зазнобин. Видеоархив"
    INDEX 01 90:10:65
  TRACK 385 AUDIO
    TITLE "01:30:24.01887"
    PERFORMER "Владимир Михайлович Зазнобин. Видеоархив"
    INDEX 01 90:24:01
  TRACK 386 AUDIO
    TITLE "01:30:38.86331"
    PERFORMER "Владимир Михайлович Зазнобин. Видеоархив"
    INDEX 01 90:38:65
  TRACK 387 AUDIO
    TITLE "01:30:51.69923"
    PERFORMER "Владимир Михайлович Зазнобин. Видеоархив"
    INDEX 01 90:51:52
  TRACK 388 AUDIO
    TITLE "01:31:06.59011"
    PERFORMER "Владимир Михайлович Зазнобин. Видеоархив"
    INDEX 01 91:06:44
  TRACK 389 AUDIO
    TITLE "01:31:19.12417"
    PERFORMER "Владимир Михайлович Зазнобин. Видеоархив"
    INDEX 01 91:19:09
  TRACK 390 AUDIO
    TITLE "01:31:32.95855"
    PERFORMER "Владимир Михайлович Зазнобин. Видеоархив"
    INDEX 01 91:32:72
  TRACK 391 AUDIO
    TITLE "01:31:47.97714"
    PERFORMER "Владимир Михайлович Зазнобин. Видеоархив"
    INDEX 01 91:47:73
  TRACK 392 AUDIO
    TITLE "01:32:01.02204"
    PERFORMER "Владимир Михайлович Зазнобин. Видеоархив"
    INDEX 01 92:01:02
  TRACK 393 AUDIO
    TITLE "01:32:13.86957"
    PERFORMER "Владимир Михайлович Зазнобин. Видеоархив"
    INDEX 01 92:13:65
  TRACK 394 AUDIO
    TITLE "01:32:26.57778"
    PERFORMER "Владимир Михайлович Зазнобин. Видеоархив"
    INDEX 01 92:26:43
  TRACK 395 AUDIO
    TITLE "01:32:42.04916"
    PERFORMER "Владимир Михайлович Зазнобин. Видеоархив"
    INDEX 01 92:42:04
  TRACK 396 AUDIO
    TITLE "01:32:59.34331"
    PERFORMER "Владимир Михайлович Зазнобин. Видеоархив"
    INDEX 01 92:59:26
  TRACK 397 AUDIO
    TITLE "01:33:11.91220"
    PERFORMER "Владимир Михайлович Зазнобин. Видеоархив"
    INDEX 01 93:11:68
  TRACK 398 AUDIO
    TITLE "01:33:31.71410"
    PERFORMER "Владимир Михайлович Зазнобин. Видеоархив"
    INDEX 01 93:31:54
  TRACK 399 AUDIO
    TITLE "01:33:48.33488"
    PERFORMER "Владимир Михайлович Зазнобин. Видеоархив"
    INDEX 01 93:48:25
  TRACK 400 AUDIO
    TITLE "01:34:01.12435"
    PERFORMER "Владимир Михайлович Зазнобин. Видеоархив"
    INDEX 01 94:01:09
  TRACK 401 AUDIO
    TITLE "01:34:15.13288"
    PERFORMER "Владимир Михайлович Зазнобин. Видеоархив"
    INDEX 01 94:15:10
  TRACK 402 AUDIO
    TITLE "01:34:27.94558"
    PERFORMER "Владимир Михайлович Зазнобин. Видеоархив"
    INDEX 01 94:27:71
  TRACK 403 AUDIO
    TITLE "01:34:40.44481"
    PERFORMER "Владимир Михайлович Зазнобин. Видеоархив"
    INDEX 01 94:40:33
  TRACK 404 AUDIO
    TITLE "01:34:53.97732"
    PERFORMER "Владимир Михайлович Зазнобин. Видеоархив"
    INDEX 01 94:53:73
  TRACK 405 AUDIO
    TITLE "01:35:07.27764"
    PERFORMER "Владимир Михайлович Зазнобин. Видеоархив"
    INDEX 01 95:07:21
  TRACK 406 AUDIO
    TITLE "01:35:21.37905"
    PERFORMER "Владимир Михайлович Зазнобин. Видеоархив"
    INDEX 01 95:21:28
  TRACK 407 AUDIO
    TITLE "01:35:36.38603"
    PERFORMER "Владимир Михайлович Зазнобин. Видеоархив"
    INDEX 01 95:36:29
  TRACK 408 AUDIO
    TITLE "01:35:51.23048"
    PERFORMER "Владимир Михайлович Зазнобин. Видеоархив"
    INDEX 01 95:51:17
  TRACK 409 AUDIO
    TITLE "01:36:05.63374"
    PERFORMER "Владимир Михайлович Зазнобин. Видеоархив"
    INDEX 01 96:05:48
  TRACK 410 AUDIO
    TITLE "01:36:19.56100"
    PERFORMER "Владимир Михайлович Зазнобин. Видеоархив"
    INDEX 01 96:19:42
  TRACK 411 AUDIO
    TITLE "01:36:34.46349"
    PERFORMER "Владимир Михайлович Зазнобин. Видеоархив"
    INDEX 01 96:34:35
  TRACK 412 AUDIO
    TITLE "01:36:47.85669"
    PERFORMER "Владимир Михайлович Зазнобин. Видеоархив"
    INDEX 01 96:47:64
  TRACK 413 AUDIO
    TITLE "01:37:00.42558"
    PERFORMER "Владимир Михайлович Зазнобин. Видеоархив"
    INDEX 01 97:00:32
  TRACK 414 AUDIO
    TITLE "01:37:14.03937"
    PERFORMER "Владимир Михайлович Зазнобин. Видеоархив"
    INDEX 01 97:14:03
  TRACK 415 AUDIO
    TITLE "01:37:27.52544"
    PERFORMER "Владимир Михайлович Зазнобин. Видеоархив"
    INDEX 01 97:27:39
  TRACK 416 AUDIO
    TITLE "01:37:40.73288"
    PERFORMER "Владимир Михайлович Зазнобин. Видеоархив"
    INDEX 01 97:40:55
  TRACK 417 AUDIO
    TITLE "01:37:53.99837"
    PERFORMER "Владимир Михайлович Зазнобин. Видеоархив"
    INDEX 01 97:54:00
  TRACK 418 AUDIO
    TITLE "01:38:07.60054"
    PERFORMER "Владимир Михайлович Зазнобин. Видеоархив"
    INDEX 01 98:07:45
  TRACK 419 AUDIO
    TITLE "01:38:20.92408"
    PERFORMER "Владимир Михайлович Зазнобин. Видеоархив"
    INDEX 01 98:20:69
  TRACK 420 AUDIO
    TITLE "01:38:35.50150"
    PERFORMER "Владимир Михайлович Зазнобин. Видеоархив"
    INDEX 01 98:35:38
  TRACK 421 AUDIO
    TITLE "01:38:48.61605"
    PERFORMER "Владимир Михайлович Зазнобин. Видеоархив"
    INDEX 01 98:48:46
  TRACK 422 AUDIO
    TITLE "01:39:02.57814"
    PERFORMER "Владимир Михайлович Зазнобин. Видеоархив"
    INDEX 01 99:02:43
  TRACK 423 AUDIO
    TITLE "01:39:17.08590"
    PERFORMER "Владимир Михайлович Зазнобин. Видеоархив"
    INDEX 01 99:17:06
  TRACK 424 AUDIO
    TITLE "01:39:30.72290"
    PERFORMER "Владимир Михайлович Зазнобин. Видеоархив"
    INDEX 01 99:30:54
  TRACK 425 AUDIO
    TITLE "01:39:43.62848"
    PERFORMER "Владимир Михайлович Зазнобин. Видеоархив"
    INDEX 01 99:43:47
  TRACK 426 AUDIO
    TITLE "01:39:56.38313"
    PERFORMER "Владимир Михайлович Зазнобин. Видеоархив"
    INDEX 01 99:56:29
  TRACK 427 AUDIO
    TITLE "01:40:11.42494"
    PERFORMER "Владимир Михайлович Зазнобин. Видеоархив"
    INDEX 01 100:11:32
  TRACK 428 AUDIO
    TITLE "01:40:24.48145"
    PERFORMER "Владимир Михайлович Зазнобин. Видеоархив"
    INDEX 01 100:24:36
  TRACK 429 AUDIO
    TITLE "01:40:44.07438"
    PERFORMER "Владимир Михайлович Зазнобин. Видеоархив"
    INDEX 01 100:44:06
  TRACK 430 AUDIO
    TITLE "01:40:58.45442"
    PERFORMER "Владимир Михайлович Зазнобин. Видеоархив"
    INDEX 01 100:58:34
  TRACK 431 AUDIO
    TITLE "01:41:11.09297"
    PERFORMER "Владимир Михайлович Зазнобин. Видеоархив"
    INDEX 01 101:11:07
  TRACK 432 AUDIO
    TITLE "01:41:26.01868"
    PERFORMER "Владимир Михайлович Зазнобин. Видеоархив"
    INDEX 01 101:26:01
  TRACK 433 AUDIO
    TITLE "01:41:39.67891"
    PERFORMER "Владимир Михайлович Зазнобин. Видеоархив"
    INDEX 01 101:39:51
  TRACK 434 AUDIO
    TITLE "01:41:53.35075"
    PERFORMER "Владимир Михайлович Зазнобин. Видеоархив"
    INDEX 01 101:53:26
  TRACK 435 AUDIO
    TITLE "01:42:06.30277"
    PERFORMER "Владимир Михайлович Зазнобин. Видеоархив"
    INDEX 01 102:06:23
  TRACK 436 AUDIO
    TITLE "01:42:20.06748"
    PERFORMER "Владимир Михайлович Зазнобин. Видеоархив"
    INDEX 01 102:20:05
  TRACK 437 AUDIO
    TITLE "01:42:35.10930"
    PERFORMER "Владимир Михайлович Зазнобин. Видеоархив"
    INDEX 01 102:35:08
  TRACK 438 AUDIO
    TITLE "01:42:53.21615"
    PERFORMER "Владимир Михайлович Зазнобин. Видеоархив"
    INDEX 01 102:53:16
  TRACK 439 AUDIO
    TITLE "01:43:06.95764"
    PERFORMER "Владимир Михайлович Зазнобин. Видеоархив"
    INDEX 01 103:06:72
  TRACK 440 AUDIO
    TITLE "01:43:19.50331"
    PERFORMER "Владимир Михайлович Зазнобин. Видеоархив"
    INDEX 01 103:19:38
  TRACK 441 AUDIO
    TITLE "01:43:32.15347"
    PERFORMER "Владимир Михайлович Зазнобин. Видеоархив"
    INDEX 01 103:32:12
  TRACK 442 AUDIO
    TITLE "01:43:50.24871"
    PERFORMER "Владимир Михайлович Зазнобин. Видеоархив"
    INDEX 01 103:50:19
  TRACK 443 AUDIO
    TITLE "01:44:03.28200"
    PERFORMER "Владимир Михайлович Зазнобин. Видеоархив"
    INDEX 01 104:03:21
  TRACK 444 AUDIO
    TITLE "01:44:17.10476"
    PERFORMER "Владимир Михайлович Зазнобин. Видеоархив"
    INDEX 01 104:17:08
  TRACK 445 AUDIO
    TITLE "01:44:30.98558"
    PERFORMER "Владимир Михайлович Зазнобин. Видеоархив"
    INDEX 01 104:30:74
  TRACK 446 AUDIO
    TITLE "01:44:49.32463"
    PERFORMER "Владимир Михайлович Зазнобин. Видеоархив"
    INDEX 01 104:49:24
  TRACK 447 AUDIO
    TITLE "01:45:02.59011"
    PERFORMER "Владимир Михайлович Зазнобин. Видеоархив"
    INDEX 01 105:02:44
  TRACK 448 AUDIO
    TITLE "01:45:15.39120"
    PERFORMER "Владимир Михайлович Зазнобин. Видеоархив"
    INDEX 01 105:15:29
  TRACK 449 AUDIO
    TITLE "01:45:28.73796"
    PERFORMER "Владимир Михайлович Зазнобин. Видеоархив"
    INDEX 01 105:28:55
  TRACK 450 AUDIO
    TITLE "01:45:42.00345"
    PERFORMER "Владимир Михайлович Зазнобин. Видеоархив"
    INDEX 01 105:42:00
  TRACK 451 AUDIO
    TITLE "01:45:59.34404"
    PERFORMER "Владимир Михайлович Зазнобин. Видеоархив"
    INDEX 01 105:59:26
  TRACK 452 AUDIO
    TITLE "01:46:13.16680"
    PERFORMER "Владимир Михайлович Зазнобин. Видеоархив"
    INDEX 01 106:13:13
  TRACK 453 AUDIO
    TITLE "01:46:26.03755"
    PERFORMER "Владимир Михайлович Зазнобин. Видеоархив"
    INDEX 01 106:26:03
  TRACK 454 AUDIO
    TITLE "01:46:41.65986"
    PERFORMER "Владимир Михайлович Зазнобин. Видеоархив"
    INDEX 01 106:41:49
  TRACK 455 AUDIO
    TITLE "01:46:55.70322"
    PERFORMER "Владимир Михайлович Зазнобин. Видеоархив"
    INDEX 01 106:55:53
  TRACK 456 AUDIO
    TITLE "01:47:09.42150"
    PERFORMER "Владимир Михайлович Зазнобин. Видеоархив"
    INDEX 01 107:09:32
  TRACK 457 AUDIO
    TITLE "01:47:22.28063"
    PERFORMER "Владимир Михайлович Зазнобин. Видеоархив"
    INDEX 01 107:22:21
  TRACK 458 AUDIO
    TITLE "01:47:45.22884"
    PERFORMER "Владимир Михайлович Зазнобин. Видеоархив"
    INDEX 01 107:45:17
  TRACK 459 AUDIO
    TITLE "01:47:58.83102"
    PERFORMER "Владимир Михайлович Зазнобин. Видеоархив"
    INDEX 01 107:58:62
  TRACK 460 AUDIO
    TITLE "01:48:12.39837"
    PERFORMER "Владимир Михайлович Зазнобин. Видеоархив"
    INDEX 01 108:12:30
  TRACK 461 AUDIO
    TITLE "01:48:24.85116"
    PERFORMER "Владимир Михайлович Зазнобин. Видеоархив"
    INDEX 01 108:24:64
  TRACK 462 AUDIO
    TITLE "01:48:38.73197"
    PERFORMER "Владимир Михайлович Зазнобин. Видеоархив"
    INDEX 01 108:38:55
  TRACK 463 AUDIO
    TITLE "01:48:51.56789"
    PERFORMER "Владимир Михайлович Зазнобин. Видеоархив"
    INDEX 01 108:51:43
  TRACK 464 AUDIO
    TITLE "01:49:04.28771"
    PERFORMER "Владимир Михайлович Зазнобин. Видеоархив"
    INDEX 01 109:04:22
  TRACK 465 AUDIO
    TITLE "01:49:20.08417"
    PERFORMER "Владимир Михайлович Зазнобин. Видеоархив"
    INDEX 01 109:20:06
  TRACK 466 AUDIO
    TITLE "01:49:34.29007"
    PERFORMER "Владимир Михайлович Зазнобин. Видеоархив"
    INDEX 01 109:34:22
  TRACK 467 AUDIO
    TITLE "01:49:48.55401"
    PERFORMER "Владимир Михайлович Зазнобин. Видеоархив"
    INDEX 01 109:48:42
  TRACK 468 AUDIO
    TITLE "01:50:01.21578"
    PERFORMER "Владимир Михайлович Зазнобин. Видеоархив"
    INDEX 01 110:01:16
  TRACK 469 AUDIO
    TITLE "01:50:14.96889"
    PERFORMER "Владимир Михайлович Зазнобин. Видеоархив"
    INDEX 01 110:14:73
  TRACK 470 AUDIO
    TITLE "01:50:28.51302"
    PERFORMER "Владимир Михайлович Зазнобин. Видеоархив"
    INDEX 01 110:28:38
  TRACK 471 AUDIO
    TITLE "01:50:41.70884"
    PERFORMER "Владимир Михайлович Зазнобин. Видеоархив"
    INDEX 01 110:41:53
  TRACK 472 AUDIO
    TITLE "01:50:57.62141"
    PERFORMER "Владимир Михайлович Зазнобин. Видеоархив"
    INDEX 01 110:57:47
  TRACK 473 AUDIO
    TITLE "01:51:11.29324"
    PERFORMER "Владимир Михайлович Зазнобин. Видеоархив"
    INDEX 01 111:11:22
  TRACK 474 AUDIO
    TITLE "01:51:24.26848"
    PERFORMER "Владимир Михайлович Зазнобин. Видеоархив"
    INDEX 01 111:24:20
  TRACK 475 AUDIO
    TITLE "01:51:36.82576"
    PERFORMER "Владимир Михайлович Зазнобин. Видеоархив"
    INDEX 01 111:36:62
  TRACK 476 AUDIO
    TITLE "01:51:49.34821"
    PERFORMER "Владимир Михайлович Зазнобин. Видеоархив"
    INDEX 01 111:49:26
  TRACK 477 AUDIO
    TITLE "01:52:02.13769"
    PERFORMER "Владимир Михайлович Зазнобин. Видеоархив"
    INDEX 01 112:02:10
  TRACK 478 AUDIO
    TITLE "01:52:15.78630"
    PERFORMER "Владимир Михайлович Зазнобин. Видеоархив"
    INDEX 01 112:15:59
  TRACK 479 AUDIO
    TITLE "01:52:28.83120"
    PERFORMER "Владимир Михайлович Зазнобин. Видеоархив"
    INDEX 01 112:28:62
  TRACK 480 AUDIO
    TITLE "01:52:53.23066"
    PERFORMER "Владимир Михайлович Зазнобин. Видеоархив"
    INDEX 01 112:53:17
  TRACK 481 AUDIO
    TITLE "01:53:05.70667"
    PERFORMER "Владимир Михайлович Зазнобин. Видеоархив"
    INDEX 01 113:05:53
  TRACK 482 AUDIO
    TITLE "01:53:19.64553"
    PERFORMER "Владимир Михайлович Зазнобин. Видеоархив"
    INDEX 01 113:19:48
  TRACK 483 AUDIO
    TITLE "01:53:33.43347"
    PERFORMER "Владимир Михайлович Зазнобин. Видеоархив"
    INDEX 01 113:33:33
  TRACK 484 AUDIO
    TITLE "01:53:46.78023"
    PERFORMER "Владимир Михайлович Зазнобин. Видеоархив"
    INDEX 01 113:46:59
  TRACK 485 AUDIO
    TITLE "01:53:59.68580"
    PERFORMER "Владимир Михайлович Зазнобин. Видеоархив"
    INDEX 01 113:59:51
  TRACK 486 AUDIO
    TITLE "01:54:12.82358"
    PERFORMER "Владимир Михайлович Зазнобин. Видеоархив"
    INDEX 01 114:12:62
  TRACK 487 AUDIO
    TITLE "01:54:26.58830"
    PERFORMER "Владимир Михайлович Зазнобин. Видеоархив"
    INDEX 01 114:26:44
  TRACK 488 AUDIO
    TITLE "01:54:39.87701"
    PERFORMER "Владимир Михайлович Зазнобин. Видеоархив"
    INDEX 01 114:39:66
  TRACK 489 AUDIO
    TITLE "01:55:03.20834"
    PERFORMER "Владимир Михайлович Зазнобин. Видеоархив"
    INDEX 01 115:03:16
  TRACK 490 AUDIO
    TITLE "01:55:15.70757"
    PERFORMER "Владимир Михайлович Зазнобин. Видеоархив"
    INDEX 01 115:15:53
  TRACK 491 AUDIO
    TITLE "01:55:28.79891"
    PERFORMER "Владимир Михайлович Зазнобин. Видеоархив"
    INDEX 01 115:28:60
  TRACK 492 AUDIO
    TITLE "01:55:42.42431"
    PERFORMER "Владимир Михайлович Зазнобин. Видеоархив"
    INDEX 01 115:42:32
  TRACK 493 AUDIO
    TITLE "01:56:01.15810"
    PERFORMER "Владимир Михайлович Зазнобин. Видеоархив"
    INDEX 01 116:01:12
